<svg xmlns="http://www.w3.org/2000/svg" viewBox="0 0 256 256"><path fill="currentColor" d="M128 0C57.31 0 0 57.31 0 128c0 56.55 36.67 104.53 87.53 121.48 6.4 1.18 8.74-2.78 8.74-6.17 0-3.04-.12-13.09-.18-23.75-35.61 7.74-43.12-15.07-43.12-15.07-5.82-14.8-14.2-18.74-14.2-18.74-11.6-7.94.88-7.78.88-7.78 12.83.9 19.58 13.17 19.58 13.17 11.4 19.54 29.92 13.89 37.22 10.62 1.15-8.26 4.46-13.89 8.11-17.08-28.39-3.23-58.24-14.2-58.24-63.19 0-13.95 4.98-25.36 13.15-34.3-1.32-3.23-5.7-16.22 1.25-33.82 0 0 10.72-3.43 35.13 13.1 10.19-2.83 21.12-4.25 32-4.3 10.88.05 21.81 1.47 32 4.3 24.39-16.53 35.09-13.1 35.09-13.1 6.97 17.6 2.59 30.59 1.27 33.82 8.19 8.94 13.13 20.35 13.13 34.3 0 49.07-29.89 59.92-58.36 63.08 4.59 3.96 8.67 11.75 8.67 23.68 0 17.1-.16 30.87-.16 35.07 0 3.42 2.3 7.41 8.8 6.16C219.37 232.47 256 184.52 256 128 256 57.31 198.69 0 128 0"/></svg>
